<svg version="1.2" xmlns="http://www.w3.org/2000/svg" viewBox="0 0 200 140" width="200" height="140">
	<title>logo-svg</title>
	<style>
		.s0 { fill: #000000 } 
	</style>
	<g id="Layer">
		<path id="Layer" fill-rule="evenodd" class="s0" d="m76.9 3.5c14.5 0.7 28.4 2.8 39.8 5.9l3.5 0.9 0.8-1.3c1.1-1.6 2.8-3.4 3.8-3.9 2.7-1.4 5.6-1.1 9.7 1 3.1 1.5 6.3 3.8 12.1 8.6 5.4 4.5 6.3 5.1 8.8 6.2 4 1.6 8.7 4 11.4 5.7 3.7 2.5 10.6 9.2 11.5 11.4 1 2.3 1.4 4.2 1.4 7.7v3l1.2 0.5c2.4 0.9 7.5 3.6 9.3 4.7 3.4 2.3 5.9 5.1 6.8 7.6 0.8 2.4 0.3 9.1-0.8 10-0.4 0.4-0.5 0.6-0.2 0.9 0.2 0.3 0.2 1 0 2.7-0.5 3.1-0.8 3.7-1.8 4.1-0.8 0.3-0.8 0.5-0.4 0.8 0.3 0.4 0.2 0.8-0.7 2.9-0.9 1.9-1.3 2.5-1.9 2.8-0.7 0.2-0.8 0.3-0.4 0.5 0.3 0.1 0.5 0.3 0.5 0.5 0 0.4-4.2 3.5-6.5 4.7-1.2 0.7-2 1.4-2.3 2-1.4 2.9-5.5 6.5-8.8 7.7-1.7 0.7-5.3 1.4-5.5 1.1-0.1-0.1 0.4-0.8 1-1.7 1.7-2.2 4.1-6.3 4.1-6.9 0-0.6-1.5-1.2-3.9-1.7-1.4-0.3-1.5-0.3-2 0.5-1.2 1.5-4.7 5.1-6.5 6.3q-3.2 2.3-6 2.7l-1.4 0.2-0.1 3.2c0 3.5-0.6 5.3-2 7.2-0.4 0.6-0.6 1.1-0.5 1.2 0.5 0.3 4.4-0.8 8.5-2.5 2.4-1 4.7-1.7 5-1.7 0.4 0.1 0.7 0.4 0.8 0.9 0.2 1.1-0.3 3.6-1.1 5.2-0.4 0.8-0.7 1.5-0.6 1.6 0 0 0.5 0.3 0.9 0.5 1.7 0.9 1.7 0.8 1.1 2.7-1.4 3.9-5.6 9.1-9.8 12-1.9 1.3-5 2.9-5 2.5 0-0.1 0.1-0.5 0.2-0.9 0.3-0.7 0.3-0.8-0.2-0.6-5.4 2.1-15.6 4.2-16.8 3.4-0.3-0.2-0.3-0.5 0.1-1.5 0.3-0.7 0.4-1.2 0.4-1.3-0.1-0.1-1 0.1-2 0.3-4.3 0.9-9.4 1.1-9.8 0.4 0-0.2 0.1-0.7 0.3-1.1 0.3-0.5 0.5-1 0.5-1.1 0-0.2-1-0.2-2.1-0.2-2.2 0.2-4.8-0.1-5.4-0.5-0.3-0.1-0.2-0.7 0.6-2.3 0.6-1.1 1.1-2.2 1-2.2-0.1-0.1-5.3-1-5.8-1-0.1 0-0.2-0.4-0.2-0.8 0-2-2.1-6.8-3.7-8.8l-0.8-0.9-4.5 0.1c-7.8 0.3-18.3 1.9-25.4 3.9l-3.7 1-4.1-1.6c-9-3.6-17.6-7.9-21.3-10.7-1.8-1.3-3.3-3-3.3-3.7 0-0.2 0.7-0.3 3.5-0.6 0.5-0.1 1.1-0.2 1.1-0.2 0.1 0-0.6-0.4-1.6-0.9-3.1-1.7-6-3.9-9-6.8-1.6-1.6-3.2-3.3-3.5-3.8l-0.6-0.8h2.7c1.4 0.1 3.3 0 4.2-0.1l1.5-0.2-1.5-1.1c-3-1.9-12.5-10.1-16.1-13.8l-1.4-1.5 1.1-0.2c0.6-0.1 1.9-0.3 2.8-0.5l1.5-0.3-1.8-1.2c-2.4-1.5-8.2-6.1-12.4-9.8-5-4.5-11.9-11.6-12.2-12.5-0.1-0.5 0.7-3.1 2.8-9.3 1.6-4.8 3-9 3.1-9.3 0.2-0.6-0.1-1.1-1.4-2.3l-1.5-1.5 2.6-1.6c15.5-9.5 33.2-15.7 50.3-17.7l3.2-0.3v-4.2l1-0.2c0.5-0.1 1.7-0.2 2.8-0.2 4.2-0.2 5.6-0.2 11 0.1zm9.6 4.1c-2.3 1.2-0.6 6.9 3.5 11.8 2.3 2.8 7.5 6.7 12.1 8.9 2.4 1.3 5.3 2.5 5.5 2.3 0 0-0.4-0.8-0.9-1.7l-1-1.7h1.4c2.2 0 6.8 1.8 11.7 4.3 0.1 0.1-0.2-0.6-0.7-1.4-1-1.9-1-2.2-0.2-1.6 0.4 0.2 1.7 0.7 2.9 1.2 1.1 0.4 3.4 1.5 5 2.3 3.6 1.9 4 2 9 2.8 4.8 0.7 6.2 1.2 9.5 3.8 3.4 2.6 8.5 5.6 11 6.4 1.2 0.4 2.2 0.9 2.3 1 0 0.2-0.3 0.7-0.7 1.2l-0.7 0.9-4-0.9c-2.2-0.4-4.1-0.9-4.2-0.9-0.2 0 0-0.4 0.3-0.9 0.4-0.4 0.6-0.8 0.6-1 0-0.1-0.6-0.5-1.4-0.8l-1.5-0.6-1.9 1.2c-3.2 2.1-4.2 2-4.9-0.5-0.4-1.4-0.4-1.6 0-1.8 1.5-0.9 1.5-0.9 0.3-1.5-0.7-0.3-1-0.7-0.9-0.9 0.2-0.5-1.1-1.8-1.7-1.8-0.6 0-0.8 0.6-1 3.2-0.1 1.6-0.3 2.3-0.5 2.3-0.6 0-2.3-1-6.4-4-3.8-2.6-6-4-6.5-3.8-0.2 0.1 0.2 1.2 0.9 2.5 2.2 4.4 6 7.5 11.9 9.5 1.2 0.3 4.8 1.3 8 2.1 6.9 1.8 9.5 2.6 13.1 3.9 4.5 1.8 7.8 3.7 6.4 3.7-0.2 0-1.2 0.4-2.2 0.9-1.8 0.8-1.9 0.8-3.1 0.4-4.5-1.6-16.5-3-26.5-3-2.7 0-4.8 0-4.7 0.1 0.1 0.1 1.7 0.4 3.5 0.8 9.4 1.7 23.9 6 34.2 10.3 2.5 1 6.2 2.9 6 3.1 0 0.1-1.1-0.2-2.4-0.6-7.3-2.3-24.7-5.7-32-6.3l-1.9-0.2 1.4 0.5c9.7 2.8 17.1 5.7 24.4 9.2 4.3 2 9.2 4.8 9.2 5.2 0 0.1-1.3-0.4-2.9-1-5.3-2.1-14.3-4.6-21.9-6.1-4.9-1-6-1-3.7-0.2 4.1 1.4 13.4 6.5 18.1 9.7 1.2 0.9 2.2 1.6 2.2 1.7 0 0.1-0.7-0.2-1.5-0.7-2.4-1.4-5-2.6-8.2-3.7-4.8-1.5-7.3-2-12-2-4.5 0-6.8 0.5-9.8 2-4.9 2.5-8.4 7.9-9.7 14.8-0.1 1-0.3 1.8-0.4 1.9-0.4 0.4-2.9-6.2-4.1-10.9-0.5-2.2-1.7-8.6-2.2-11.8-0.2-1.5-0.4-5.2-0.4-8.4 0-3.1 0-5.7 0-5.7 0 0-0.5 0.7-1.1 1.5-3.4 5-5.5 12-6.3 21.5-0.4 4.3-0.2 11.5 0.3 15.1 0.2 1.1 0.2 2 0.2 2.1-0.5 0.4-4.4-6.9-5.8-10.6q-5.3-14.4-2.1-32.2c0.7-4 2.2-9.4 3.3-12 0.3-0.8 0.5-1.5 0.5-1.5-0.3-0.4-2.8 2.4-4 4.4-1.9 3.2-4.1 8.8-4.8 12l-0.2 1-0.3-0.7c-2-3.9-2-17.7 0-24.5 0.1-0.5-0.1-0.8-1.2-1.6-3.9-2.9-7.2-11-7.9-19.2-0.2-2.5-0.2-2.5-1-2.7-0.5 0-3.7-0.1-7.2-0.1-7.3 0-6.7-0.4-6.7 3.6 0 4.3 2 17.3 3.3 21.7 0.3 1 0.4 1.3 0.1 1.3-0.4 0-4.2-4-5.9-6.2-0.8-1-1.4-1.8-1.5-1.8-0.1 0.2 1.4 7.7 2.4 11.8 3.2 12.6 9.3 27.7 15.8 39.1 0.9 1.7 1.7 3.1 1.6 3.2-0.2 0.2-6.1-3.5-9.8-6.2-15.8-11.2-32.7-29.3-40.2-43.1l-1.5-2.7 0.1 2.1c0.5 5.9 4.7 19.5 8.4 26.8l1.4 2.9-1.1-0.7c-6.1-3.7-17.5-14.9-25.8-25.3l-0.9-1.1-0.6 0.9c-0.8 1.3-3.3 7.8-4.2 10.6-0.7 2.5-0.7 2.6 1.6 5.3 5.9 7.2 29.9 23.4 47.1 31.7l3.5 1.7-3.1-0.1c-1.6-0.1-4.5-0.5-6.4-0.8-3.2-0.5-10.3-2.2-12-2.9-1.1-0.4-1.2-0.2-0.2 0.8 2.8 2.8 11.1 7.9 21.7 13.3l5.8 3-1.2 0.2c-1.6 0.3-15.5 0.3-17.8-0.1-1.6-0.2-1.8-0.2-1.3 0.2 1.4 1 6.4 3.6 10.1 5.3 2.3 0.9 4.5 1.9 4.9 2.1 0.8 0.4 0.7 0.4-3.2 1.4l-4.2 1 2.9 1.1c1.5 0.5 5.8 2 9.3 3.3l6.5 2.4 4.4-0.8c8.1-1.4 12.7-1.9 19.3-1.9 5-0.1 6-0.1 5.8-0.5-0.6-0.7-4.1-3-7.3-4.9l-3.2-1.9 1.5 0.3c2.2 0.2 6.4 1.6 8.8 2.9 6.1 3.3 10.5 8.6 11.4 13.6 0.3 2.1 0.1 1.9 3.8 2.5 1.3 0.1 2.3 0.3 2.4 0.4 0.1 0-0.4 1-1 2.1-0.5 1.2-0.9 2.2-0.8 2.3 0.3 0.4 4.7 0.4 6.2 0.1 0.9-0.2 1.6-0.3 1.7-0.2 0.1 0-0.2 0.7-0.6 1.4-0.4 0.7-0.8 1.4-0.8 1.5 0 0.4 5.5-0.1 9-0.8 1.8-0.4 3.4-0.7 3.4-0.6 0.1 0-0.1 0.6-0.5 1.4-0.3 0.7-0.5 1.3-0.3 1.4 3 0.3 9.7-1.3 14.1-3.4 1.1-0.6 2-1 2.1-1 0 0 0.1 0.4 0.1 0.8 0 1.1 0.4 1.1 1.7 0.3 1.7-1 3.5-2.6 5.4-4.9 1.9-2.3 4.3-6 4.1-6.4-0.1-0.1-1-0.5-1.9-0.8l-1.8-0.7 1.2-1.3c1.6-1.8 2-2.7 2.2-4.4l0.2-1.5-3.8 1.9c-2 1.1-4.5 2.1-5.6 2.4-2 0.5-5.6 0.4-7.1-0.2l-0.8-0.3 1-1.1c3.3-3.5 4.6-6.2 3.8-7.5-0.2-0.3-0.7-0.1-2.1 1-3.4 2.5-8.6 4.4-12 4.4-1.9 0-3.9-0.7-5.5-2.1-2.2-1.9-3.2-2.3-5.8-2.4l-2.2-0.2-0.5-2c-0.2-1.1-0.4-2.6-0.4-3.4 0-1.7 0.1-1.8 3.5-1.8 4.1 0 6.2 1.2 9.7 5.2 1.5 1.8 2.6 2.8 3.5 3.3 1.3 0.6 1.4 0.6 2.9 0.1 0.8-0.3 2.3-1.1 3.3-1.8 1-0.7 1.8-1.3 1.8-1.4 0 0-0.3-0.5-0.6-1.2-0.7-1.3-0.8-3.6-0.2-5.4 1.5-4 6.6-7.5 11.1-7.6h1.4v1.4c0 1-0.4 2-1.5 4.2-0.8 1.6-1.4 2.9-1.3 2.9 0.4 0 3.3-1.6 4.6-2.6 1.6-1.2 4.2-4.1 4.9-5.5l0.5-0.9 2.4 0.1c3.9 0.3 6 1.5 6 3.6 0 1.5-0.6 2.8-2.2 5-1.4 1.8-1.4 1.9-0.6 1.7 1.5-0.4 3.9-1.7 5.5-3 1.9-1.6 3-3.3 3-4.9 0-1-0.1-1.2-1-1.7-0.6-0.3-1.5-1.1-2.1-1.8-1-1-1.2-1.1-2.1-0.9-0.6 0.1-4.5 0.2-8.8 0.2-4.3 0-8.5 0-9.2 0-4 0.1-8.6 2-11 4.4-1.3 1.3-3.8 5.6-3.8 6.5 0 0.3-0.8-0.3-1.9-1.3-2.2-2-4.6-3.5-5.7-3.5-0.9 0-0.9 0.1-0.4 1.2 0.8 1.3 0.5 1.4-1 0.4-2.7-1.8-6-2.4-9.3-1.5-0.8 0.3-1.7 0.5-1.7 0.5-0.3 0 0.5-4 1.3-6.1 1.9-5.6 5.4-8.8 10.4-9.6 4.3-0.6 9.8 0.7 17.7 4.4 6.4 3 6.3 3 11.7 3 3.6 0 5-0.1 6.5-0.5 5-1.4 8.6-4 9.9-7.3 0.9-2.6 1.1-7.3 0.3-9.4-0.7-1.9-2.3-3.5-4.3-4.6-1.1-0.6-1.5-1-1.7-1.8-0.1-0.5-0.8-1.5-1.5-2.2l-1.2-1.3h1.1c1.3 0 5.1 1.1 6.4 1.8l0.9 0.6 0.8-0.8c0.8-0.7 0.9-0.7 2.5-0.4 0.9 0.1 2.3 0.4 3.2 0.6 1.3 0.2 1.7 0.4 2.1 1.1l0.4 0.9 0.8-0.6c1-0.7 2.7-0.7 3.2-0.1 0.6 0.6 0 1.6-1.4 2.6-0.7 0.5-1.3 1.1-1.4 1.4-0.1 0.4-0.9 1-2 1.6-1 0.5-2.2 1.4-2.7 1.9-1.9 2.1-3.1 5.4-4.3 11.7-1 4.7-0.9 6.7 0.7 8.3l0.9 1 1-0.4c1-0.5 3.7-3 3.7-3.4 0-0.1-0.5-0.3-1.2-0.4-0.7-0.1-1.5-0.5-2-1l-0.7-0.7 2.7-0.2c1.8-0.1 2.8-0.3 3-0.6 0.5-0.5 1.5-2.9 1.3-3.1-0.1 0-1-0.3-2.1-0.5-1.9-0.5-2.6-1.1-1.8-1.6 0.2-0.1 1.4-0.3 2.8-0.3 2.2 0 2.4 0 2.8-0.7 0.3-0.4 0.5-1.4 0.5-2.4l0.1-1.6-1.9-0.2c-1.1-0.1-2.2-0.3-2.6-0.6l-0.7-0.3 1.1-0.4c0.7-0.2 2.1-0.7 3.3-1 2-0.6 2.1-0.7 2.3-1.7 0.4-1.9 0.2-6.2-0.3-7.8-1-2.9-2.6-4.1-13.1-10.1-3.2-1.9-6.5-3.9-7.4-4.5-1.9-1.3-3.2-3.4-3.2-5 0-1 0-1.1 0.6-0.9 2 0.6 3.8 1.7 4.4 2.8 0.4 0.6 0.7 1.1 0.8 1.1 0.3 0 0.9-1.5 0.9-2.4 0-2-1.3-3.7-6.9-9.3-7.8-7.8-11-9.8-20-12.6-2.5-0.8-8-2.5-12-3.8-9.2-2.9-12.3-3.7-16.5-4-2.8-0.3-10.1 0-10.5 0.3-0.2 0.2 1.8 0.4 10.1 1.2l7.7 0.7 5 3.1 5.1 3.1 1.6-0.2 1.7-0.2 10 7.4 3.1-1.2 4.4 4.9c2.4 2.7 4.4 4.9 4.4 5 0 0.1-1-0.4-2.1-1-3.3-1.8-13.2-6.8-15.2-7.5l-1.7-0.7 1.2-0.2 1.1-0.2-1.6-0.7q-2.8-1.3-12.8-4.3l-4.8-1.4h2.4c1.5-0.1 2.2-0.1 2-0.3-0.4-0.4-4.9-1.5-14.2-3.5-11.8-2.6-19-4.9-26.2-8.5-3.8-1.8-5.1-2.2-6.2-1.6zm40.7 0.6c-1 0.8-1.9 3-1.7 3.9 0 0.4 0.2 0.3 0.6-0.4 0.5-1.1 1.8-1.8 3-1.8 1.4 0 3.9 0.9 8.4 3 5.1 2.3 7.1 2.9 3.9 1-1.2-0.7-3.2-1.9-4.3-2.7-1.2-0.7-3.1-1.8-4.2-2.4-2.8-1.4-4.5-1.6-5.7-0.6z"/>
	</g>
</svg>